<svg width="32" height="32" viewBox="0 0 32 32" fill="none" xmlns="http://www.w3.org/2000/svg">
<path opacity="0.4" fill-rule="evenodd" clip-rule="evenodd" d="M6.13062 14.7479C5.9039 14.5241 5.49469 14.5041 5.40798 14.8107C5.36253 14.9713 5.33789 15.1409 5.33789 15.3187C5.33789 16.1654 5.89646 16.8243 6.59914 17.2297L13.9263 21.4565C14.6342 21.8649 15.5046 22.043 16.3257 22.043C17.1467 22.043 18.0171 21.8649 18.725 21.4565L26.0522 17.2297C26.7548 16.8243 27.3134 16.1654 27.3134 15.3187C27.3134 15.1409 27.2888 14.9713 27.2433 14.8107C27.1566 14.5041 26.7474 14.5241 26.5207 14.7479C26.3541 14.9124 26.1594 15.0571 25.947 15.1796L25.2494 15.582C25.2174 15.6042 25.1815 15.6271 25.1411 15.6504L17.8139 19.8772C17.4483 20.0881 16.9117 20.2197 16.3257 20.2197C15.7396 20.2197 15.203 20.0881 14.8374 19.8772L7.5102 15.6504C7.46982 15.6271 7.43387 15.6042 7.40192 15.582L6.70426 15.1796C6.49193 15.0571 6.29725 14.9124 6.13062 14.7479Z" fill="url(#paint0_linear_938_544)"/>
<path opacity="0.4" fill-rule="evenodd" clip-rule="evenodd" d="M6.13258 19.2928C5.90586 19.069 5.49664 19.049 5.40993 19.3556C5.36449 19.5162 5.33984 19.6858 5.33984 19.8637C5.33984 20.7104 5.89841 21.3693 6.60109 21.7746L13.9283 26.0015C14.6362 26.4098 15.5066 26.5879 16.3276 26.5879C17.1486 26.5879 18.019 26.4098 18.7269 26.0014L26.0541 21.7746C26.7568 21.3693 27.3154 20.7104 27.3154 19.8636C27.3154 19.6858 27.2907 19.5162 27.2453 19.3556C27.1586 19.049 26.7494 19.069 26.5226 19.2928C26.356 19.4573 26.1613 19.602 25.949 19.7245L25.2513 20.1269C25.2194 20.1491 25.1834 20.172 25.1431 20.1953L17.8159 24.4221C17.4502 24.633 16.9136 24.7646 16.3276 24.7646C15.7416 24.7646 15.205 24.633 14.8394 24.4221L7.51215 20.1953C7.47177 20.172 7.43582 20.1491 7.40387 20.1269L6.70621 19.7245C6.49388 19.602 6.2992 19.4573 6.13258 19.2928Z" fill="url(#paint1_linear_938_544)"/>
<path fill-rule="evenodd" clip-rule="evenodd" d="M14.1393 15.9802C14.0261 17.1926 16.5657 17.8462 18.0541 16.9876L26.5148 12.1069C28.0032 11.2483 26.8702 9.78326 24.7684 9.84859L24.1207 9.86872C23.3627 9.89228 22.7814 10.2659 22.8222 10.7031L22.8996 11.5316C22.9028 11.566 22.9537 11.5923 23.0132 11.5905C23.112 11.5874 23.1653 11.6563 23.0953 11.6967L18.4124 14.3981C17.9668 14.6552 17.2063 14.4595 17.2402 14.0964L17.4787 11.5436C17.5521 10.7572 16.4265 10.1079 15.0633 10.1503L10.638 10.2879C10.0086 10.3075 9.66936 9.86879 10.115 9.6117L14.7978 6.91034C14.8678 6.86996 14.9873 6.9007 14.9819 6.95772C14.9787 6.99206 15.0244 7.0214 15.0839 7.02325L16.5202 7.06789C17.2782 7.09145 17.9257 6.75608 17.9666 6.31882L18.0015 5.94519C18.1147 4.73272 15.5751 4.07916 14.0868 4.93775L5.62607 9.81846C4.1377 10.6771 5.27065 12.1421 7.37248 12.0767L12.9959 11.9019C13.8122 11.8765 14.4863 12.2654 14.4423 12.7363L14.1393 15.9802Z" fill="url(#paint2_linear_938_544)"/>
<defs>
<linearGradient id="paint0_linear_938_544" x1="16.3256" y1="14.9138" x2="16.3256" y2="21.3969" gradientUnits="userSpaceOnUse">
<stop stop-color="#ECC94B"/>
<stop offset="1" stop-color="#EC7B4B"/>
</linearGradient>
<linearGradient id="paint1_linear_938_544" x1="16.3276" y1="19.4588" x2="16.3276" y2="25.9418" gradientUnits="userSpaceOnUse">
<stop stop-color="#ECC94B"/>
<stop offset="1" stop-color="#EC7B4B"/>
</linearGradient>
<linearGradient id="paint2_linear_938_544" x1="21.2517" y1="13.9516" x2="16.0769" y2="4.98109" gradientUnits="userSpaceOnUse">
<stop stop-color="#ECC94B"/>
<stop offset="1" stop-color="#EC7B4B"/>
</linearGradient>
</defs>
</svg>
