<svg width="50" height="54" viewBox="0 0 50 54" fill="none" xmlns="http://www.w3.org/2000/svg">
<g id="Frame 1000004098">
<path id="Polygon 20" d="M20.3125 2.42802C23.2131 0.753334 26.7869 0.753335 29.6875 2.42802L43.9362 10.6545C46.8368 12.3292 48.6237 15.4241 48.6237 18.7735L48.6237 35.2265C48.6237 38.5759 46.8368 41.6708 43.9362 43.3455L29.6875 51.572C26.7869 53.2467 23.2131 53.2467 20.3125 51.572L6.06379 43.3455C3.16315 41.6708 1.37629 38.5759 1.37629 35.2265L1.37629 18.7735C1.37629 15.4241 3.16315 12.3292 6.06379 10.6545L20.3125 2.42802Z" stroke="url(#paint0_linear_5499_1591)" stroke-width="1.25"/>
<path id="Polygon 19" d="M21 4.3094C23.4752 2.88034 26.5248 2.88034 29 4.3094L42.6506 12.1906C45.1258 13.6197 46.6506 16.2607 46.6506 19.1188V34.8812C46.6506 37.7393 45.1258 40.3803 42.6506 41.8094L29 49.6906C26.5248 51.1197 23.4752 51.1197 21 49.6906L7.34936 41.8094C4.87416 40.3803 3.34937 37.7393 3.34937 34.8812L3.34937 19.1188C3.34937 16.2607 4.87416 13.6197 7.34936 12.1906L21 4.3094Z" fill="url(#paint1_linear_5499_1591)" fill-opacity="0.2"/>
<rect id="Rectangle 4915" opacity="0.2" width="23.75" height="23.75" rx="4" transform="matrix(0.866025 -0.5 0.866025 0.5 4.37488 15.125)" fill="url(#paint2_linear_5499_1591)"/>
</g>
<defs>
<linearGradient id="paint0_linear_5499_1591" x1="25" y1="-1" x2="25" y2="55" gradientUnits="userSpaceOnUse">
<stop stop-color="#AFAFAF"/>
<stop offset="1" stop-color="#A9A9A9" stop-opacity="0"/>
</linearGradient>
<linearGradient id="paint1_linear_5499_1591" x1="25" y1="2" x2="25" y2="52" gradientUnits="userSpaceOnUse">
<stop stop-color="#DCDCDC"/>
<stop offset="1" stop-color="#BEBEBE" stop-opacity="0"/>
</linearGradient>
<linearGradient id="paint2_linear_5499_1591" x1="11.875" y1="0" x2="11.875" y2="23.75" gradientUnits="userSpaceOnUse">
<stop stop-color="#D9D9D9" stop-opacity="0"/>
<stop offset="1" stop-color="#D9D9D9"/>
</linearGradient>
</defs>
</svg>
